<svg xmlns="http://www.w3.org/2000/svg" baseProfile="full" version="1.1" width="810px" height="330px" style="fill: none; width: 810px; height: 330px;"><path d="" style="stroke-width: 15; stroke-linecap: round; stroke-linejoin: round; stroke: rgb(255, 0, 153); fill: none;"/><path d="" style="stroke-width: 45; stroke-linecap: round; stroke-linejoin: round; stroke: rgb(255, 255, 255); fill: none;"/><path d="M480,300 L480,300 L480,300 L480,300 L480,60 L480,60 L480,60 L600,60 M600,300 L600,300 L480,300 M165,300 L165,300 L45,60 M165,300 L165,300 L285,60 M360,60 L360,60 L240,300 M420,60 L420,60 L420,300 M360,60 L360,60 L420,60 L420,300 M780,300 L780,300 L660,300 M660,60 L660,60 L660,300 M480,180 L480,180 L525,180 " style="stroke-width: 47; stroke-linecap: round; stroke-linejoin: miter; stroke: rgb(255, 255, 255); fill: none;"/></svg>