<?xml version="1.0" standalone="no"?>
<!DOCTYPE svg PUBLIC "-//W3C//DTD SVG 20010904//EN" "http://www.w3.org/TR/2001/REC-SVG-20010904/DTD/svg10.dtd">
<svg version="1.0" xmlns="http://www.w3.org/2000/svg"
    width="840.000000pt" height="840.000000pt" viewBox="0 0 840.000000 840.000000"
    preserveAspectRatio="xMidYMid meet">

    <g transform="translate(0.000000,840.000000) scale(0.100000,-0.100000)"
        fill="#000000" stroke="none">
        <path d="M3360 7500 l0 -540 2340 0 2340 0 0 540 0 540 -2340 0 -2340 0 0
-540z" />
        <path d="M3360 6000 l0 -540 2340 0 2340 0 0 540 0 540 -2340 0 -2340 0 0
-540z" />
        <path d="M360 3900 l0 -1140 540 0 540 0 0 600 0 600 2735 0 c2181 0 2735 -3
2735 -12 0 -7 -13 -69 -29 -138 -122 -525 -391 -1026 -762 -1415 -489 -513
-1110 -829 -1824 -931 -91 -13 -218 -18 -527 -21 l-408 -5 0 -540 0 -540 433
5 c458 5 562 12 842 63 558 100 1086 313 1560 630 937 624 1580 1604 1779
2709 51 280 58 384 63 843 l5 432 -3841 0 -3841 0 0 -1140z" />
    </g>
</svg>